# xmcd CD database file
#
# Track frame offsets:
#	182
#	9950
#	22465
#	32480
#	42565
#	55935
#	68682
#	81812
#	94102
#	106632
#	119435
#	131955
#	145990
#	158587
#	171622
#	183275
#	195077
#	207172
#	219612
#	229762
#	241787
#
# Disc length: 3383 seconds
#
# Revision: 3
# Processed by: cddbd v1.4PL0 Copyright (c) Steve Scherf et al.
# Submitted via: CDex 1.40Release
#
DISCID=1f0d3515
DTITLE=Various Artist - Ride, Daddy, Ride and Other Love Songs
DYEAR=1900
DGENRE=R&B
TTITLE0=Fats Noel - Ride, Daddy, Ride
TTITLE1=The Four Jacks - Sure Cure For The Blues
TTITLE2=Bull Moose Jackson - Big Ten Inch Record
TTITLE3=The Drifters - Smooth, Slow And Easy
TTITLE4=Dorothy Ellis - Drill, Daddy, Drill
TTITLE5=The Swallows - Roll, Roll Pretty Bay
TTITLE6=Fluffy Hunter - The Walking Blues
TTITLE7=Todd Rhodes - Rocket 69
TTITLE8=The Sharps and The Flats - I Knew He Would
TTITLE9=Lil Greenwood - Grandpa Can Boogie Too
TTITLE10=Bull Moose Jackson - I Want A Bowlegged Woman
TTITLE11=Wynonie Harris - I Want My Fanny Brown
TTITLE12=Fluffy Hunter - My Natch'l Man
TTITLE13=Pete 'Guitar' Lewis - Chocolate Pork Chop Man
TTITLE14=The Swallows - It Ain't The Meat
TTITLE15=The Lamplighters - Ride, Jockey, Ride
TTITLE16=Eddie Davis - Mountain Oysters
TTITLE17=Wynonie Harris - Triflin' Woman
TTITLE18=Dave Bartholomew - My Ding-a-ling
TTITLE19=The Four Jacks - The Last Of The Good Rocking Men
TTITLE20=Todd Rhodes - Your Daddy's Doggin' Around
EXTD=ID3G: 14
EXTT0=Fats Noel
EXTT1=Four Jacks, The
EXTT2=Bull Moose Jackson
EXTT3=The Drivers [who?]
EXTT4=Dorothy Ellis
EXTT5=Swallows, The
EXTT6=Fluffy Hunter
EXTT7=Todd Rhodes
EXTT8=Sharps and Flats, The
EXTT9=Lil Greenwood
EXTT10=Bull Moose Woman
EXTT11=Wynonie Harris
EXTT12=Fluffy Hunter
EXTT13=Pete 'Guitar' Lewis
EXTT14=The Swallows
EXTT15=Lamplighters, The
EXTT16=Eddie Davis
EXTT17=Wynonie Harris
EXTT18=Dave Bartholomew
EXTT19=Four Jacks, The
EXTT20=Todd Rhodes
PLAYORDER=
